# xmcd
#
# Track frame offsets:
#	150
#	17157
#	47927
#	69807
#	90385
#	111097
#	131965
#	153690
#	173950
#	194612
#	215350
#	237487
#
# Disc length: 3457 seconds
#
# Revision: 13
# Processed by: cddbd v1.5.2PL0 Copyright (c) Steve Scherf et al.
# Submitted via: EZCDAudioConverter 4.0.4.1
#
DISCID=ac0d7f0c
DTITLE=小田和正 - Oh! Yeah!
DYEAR=1991
DGENRE=JPop
TTITLE0=空が高すぎる
TTITLE1=1985
TTITLE2=夜の行方
TTITLE3=I miss you
TTITLE4=ためらわない、迷わない
TTITLE5=good times and bad times
TTITLE6=Little Tokyo
TTITLE7=春風に乱れて
TTITLE8=恋は大騒ぎ
TTITLE9=FAR EAST CLUB BAND SONG
TTITLE10=ラブ・ストーリーは突然に
TTITLE11=Oh!Yeah!
EXTD=
EXTT0=
EXTT1=
EXTT2=
EXTT3=
EXTT4=
EXTT5=
EXTT6=
EXTT7=
EXTT8=
EXTT9=
EXTT10=
EXTT11=
PLAYORDER=
